<svg id="visual" viewBox="0 0 900 600" width="900" height="600" xmlns="http://www.w3.org/2000/svg" xmlns:xlink="http://www.w3.org/1999/xlink" version="1.1"><path d="M0 389L21.5 386.3C43 383.7 86 378.3 128.8 379C171.7 379.7 214.3 386.3 257.2 398.7C300 411 343 429 385.8 429C428.7 429 471.3 411 514.2 405.5C557 400 600 407 642.8 416.3C685.7 425.7 728.3 437.3 771.2 441.8C814 446.3 857 443.7 878.5 442.3L900 441L900 601L878.5 601C857 601 814 601 771.2 601C728.3 601 685.7 601 642.8 601C600 601 557 601 514.2 601C471.3 601 428.7 601 385.8 601C343 601 300 601 257.2 601C214.3 601 171.7 601 128.8 601C86 601 43 601 21.5 601L0 601Z" fill="#fa7268"></path><path d="M0 396L21.5 400.5C43 405 86 414 128.8 424.3C171.7 434.7 214.3 446.3 257.2 446.3C300 446.3 343 434.7 385.8 437.2C428.7 439.7 471.3 456.3 514.2 464C557 471.7 600 470.3 642.8 458.5C685.7 446.7 728.3 424.3 771.2 418.5C814 412.7 857 423.3 878.5 428.7L900 434L900 601L878.5 601C857 601 814 601 771.2 601C728.3 601 685.7 601 642.8 601C600 601 557 601 514.2 601C471.3 601 428.7 601 385.8 601C343 601 300 601 257.2 601C214.3 601 171.7 601 128.8 601C86 601 43 601 21.5 601L0 601Z" fill="#ef5f67"></path><path d="M0 463L21.5 468.2C43 473.3 86 483.7 128.8 485.2C171.7 486.7 214.3 479.3 257.2 473.5C300 467.7 343 463.3 385.8 457.8C428.7 452.3 471.3 445.7 514.2 450.8C557 456 600 473 642.8 473.3C685.7 473.7 728.3 457.3 771.2 449C814 440.7 857 440.3 878.5 440.2L900 440L900 601L878.5 601C857 601 814 601 771.2 601C728.3 601 685.7 601 642.8 601C600 601 557 601 514.2 601C471.3 601 428.7 601 385.8 601C343 601 300 601 257.2 601C214.3 601 171.7 601 128.8 601C86 601 43 601 21.5 601L0 601Z" fill="#e34c67"></path><path d="M0 542L21.5 539.2C43 536.3 86 530.7 128.8 521C171.7 511.3 214.3 497.7 257.2 492.7C300 487.7 343 491.3 385.8 495.2C428.7 499 471.3 503 514.2 504.7C557 506.3 600 505.7 642.8 503.8C685.7 502 728.3 499 771.2 500.8C814 502.7 857 509.3 878.5 512.7L900 516L900 601L878.5 601C857 601 814 601 771.2 601C728.3 601 685.7 601 642.8 601C600 601 557 601 514.2 601C471.3 601 428.7 601 385.8 601C343 601 300 601 257.2 601C214.3 601 171.7 601 128.8 601C86 601 43 601 21.5 601L0 601Z" fill="#d53867"></path><path d="M0 543L21.5 546.2C43 549.3 86 555.7 128.8 553.8C171.7 552 214.3 542 257.2 539.7C300 537.3 343 542.7 385.8 541.8C428.7 541 471.3 534 514.2 531.8C557 529.7 600 532.3 642.8 533.7C685.7 535 728.3 535 771.2 540.2C814 545.3 857 555.7 878.5 560.8L900 566L900 601L878.5 601C857 601 814 601 771.2 601C728.3 601 685.7 601 642.8 601C600 601 557 601 514.2 601C471.3 601 428.7 601 385.8 601C343 601 300 601 257.2 601C214.3 601 171.7 601 128.8 601C86 601 43 601 21.5 601L0 601Z" fill="#c62368"></path></svg>