<svg width="197" height="227" viewBox="0 0 197 227" fill="none" xmlns="http://www.w3.org/2000/svg">
<path fill-rule="evenodd" clip-rule="evenodd" d="M0 75.5V151H41.643H83.287L98.143 142.922L113 134.844V118.422V102H139H165V116.5V131H181H197V105.434C197 89.723 196.601 79.123 195.965 77.934C194.96 76.057 193.274 76 139.092 76H83.255L82.522 98.017L81.789 120.034L56.645 119.767L31.5 119.5L31.242 59.75L30.984 0H15.492H0V75.5ZM98.336 163.391C91.096 167.363 84.459 171.204 83.586 171.928C82.243 173.043 82 176.058 82 191.573C82 213.441 82.989 219.189 87.533 223.733L90.8 227H132.327H173.854L184.927 214.041C191.017 206.913 196 200.613 196 200.041C196 199.336 182.587 199 154.5 199H113V177.5C113 165.675 112.662 156.038 112.25 156.085C111.838 156.132 105.576 159.42 98.336 163.391Z" fill="black"/>
</svg>
